<svg width="238" height="65" fill="none" xmlns="http://www.w3.org/2000/svg"><path fill="#307FE2" d="M32.278 0l32.278 32.278-32.278 32.278L0 32.278z"/><path d="M52.743 30.77l-3.577 3.6.441.445a2.887 2.887 0 01.841 2.043 2.902 2.902 0 01-.841 2.042l-.669.673a2.822 2.822 0 01-2.006.841h-.194a2.903 2.903 0 01-.823 2.181l-.668.673a2.84 2.84 0 01-2.007.848 1.57 1.57 0 01-.194 0 2.87 2.87 0 01-.822 2.241l-.67.673a2.847 2.847 0 01-2.005.848 3.24 3.24 0 01-.449-.047 2.99 2.99 0 01-.855 2.02l-.67.672a2.933 2.933 0 01-2.006.862h-.06a2.719 2.719 0 01-1.946-.801l-.254-.256-1.485 1.487a3.267 3.267 0 01-4.628 0l-.267-.276a3.268 3.268 0 01-.923-2.692 3.35 3.35 0 01-.375 0 3.214 3.214 0 01-2.314-.962l-.267-.276a3.254 3.254 0 01-.916-2.692c-.134 0-.254.04-.381.04a3.287 3.287 0 01-2.314-.962l-.268-.276a3.275 3.275 0 01-.923-2.692 3.513 3.513 0 01-.381 0 3.246 3.246 0 01-2.314-.962l-.26-.263a3.285 3.285 0 01-.963-2.328 3.303 3.303 0 01.962-2.33l.294-.309-4.012-4.038 20.565-20.756 20.604 20.73zm-4.62 2.578l2.554-2.578-15.168-15.29-9.363 9.469a2.532 2.532 0 00.819 3.117 2.49 2.49 0 003.194-.25l6.22-6.354 9.242 9.329 2.501 2.557zm.467 4.536a1.445 1.445 0 000-2.019l-4.48-4.523-7.745-7.82-5.23 5.324a3.908 3.908 0 01-4.287.821 3.938 3.938 0 01-1.752-1.468 3.976 3.976 0 01-.648-2.2 4.058 4.058 0 01.428-1.804l.14-.182 9.47-9.563-2.347-2.362L13.567 30.77l3.023 3.076.394-.397a3.263 3.263 0 012.314-.968 3.247 3.247 0 012.314.968l.274.27a3.28 3.28 0 01.923 2.691c.126-.024.253-.037.381-.04a3.246 3.246 0 012.314.962l.268.276a3.274 3.274 0 01.916 2.692 3.264 3.264 0 012.709.95l.267.275a3.246 3.246 0 01.923 2.692 3.217 3.217 0 012.675.936l.274.262a3.324 3.324 0 01.669 3.729l.401.403a1.27 1.27 0 00.957.377c.38-.01.74-.17 1.003-.444l.669-.673c.272-.268.43-.633.441-1.016a1.312 1.312 0 00-.375-.963l-2.574-2.584-1.986-1.965.996-1.03 2.407 2.423.04-.04 2.328 2.328a1.426 1.426 0 002.006 0l.67-.673a1.479 1.479 0 000-2.053l-3.833-3.85-.669-.672 1.023-1.023 4.475 4.509a1.46 1.46 0 002.006 0l.669-.673a1.445 1.445 0 000-2.019l-4.521-4.55-.154-.154 1.043-.956 4.682 4.711a1.433 1.433 0 002.006 0l.675-.673zM32.54 49.056a1.863 1.863 0 000-2.618l-.268-.27a1.833 1.833 0 00-2.595 0l-1.712 1.73a1.864 1.864 0 000 2.612l.268.276a1.853 1.853 0 002.601 0l1.706-1.73zm-3.886-3.91a1.837 1.837 0 00.541-1.306 1.848 1.848 0 00-.54-1.306l-.262-.269a1.833 1.833 0 00-1.297-.541 1.824 1.824 0 00-1.297.541l-1.753 1.723a1.853 1.853 0 00-.408 2.04c.095.227.233.433.408.605l.275.263a1.833 1.833 0 002.594 0l1.713-1.717.026-.033zm-3.899-3.897a1.864 1.864 0 000-2.611l-.274-.263a1.8 1.8 0 00-1.29-.545 1.817 1.817 0 00-1.305.539l-1.718 1.702a1.864 1.864 0 000 2.612l.274.269a1.825 1.825 0 001.297.544 1.816 1.816 0 001.297-.544l1.72-1.703zm-3.879-3.903a1.864 1.864 0 000-2.612l-.274-.276a1.845 1.845 0 00-1.337-.531 1.82 1.82 0 00-1.291.531l-1.685 1.71a1.857 1.857 0 000 2.611l.267.276a1.84 1.84 0 002.595 0l1.712-1.73.013.02z" fill="#fff"/><path d="M75.445 25.274c0-11.402 17.11-11.402 17.11 0 0 11.401-17.11 11.423-17.11 0zm12.748 0a4.104 4.104 0 00-1.111-3.125 4.193 4.193 0 00-1.396-.978 4.233 4.233 0 00-4.745.978 4.13 4.13 0 00-.885 1.448 4.102 4.102 0 00-.226 1.677c0 5.98 8.362 5.98 8.362 0zm15.19-8.552c3.423 0 7.133 1.893 7.773 6.365h-4.159a3.5 3.5 0 00-1.377-1.878 3.426 3.426 0 00-2.237-.582c-2.48 0-4.114 1.886-4.114 4.666 0 2.459 1.612 4.613 4.114 4.643a3.486 3.486 0 002.33-.67 3.563 3.563 0 001.35-2.036h4.159c-.618 4.74-4.328 6.603-7.846 6.603-4.21 0-8.465-2.847-8.487-8.54-.022-5.694 4.284-8.57 8.494-8.57zm22.133 8.218c.638.32 1.171.82 1.533 1.44a3.75 3.75 0 01.503 2.054c0 2.985-1.818 5.4-5.279 5.4h-7.94V16.722h7.239a5.184 5.184 0 013.73 1.51 5.257 5.257 0 011.548 3.744 4.102 4.102 0 01-1.334 2.962zm-6.998-4.303V23.4h2.737c1.72 0 1.72-2.764 0-2.764h-2.737zm0 6.404v2.909h3.461c1.742 0 1.719-2.91 0-2.91h-3.461zm11.371-1.767c0-11.402 17.111-11.402 17.111 0 0 11.401-17.111 11.423-17.111 0zm12.781 0a4.13 4.13 0 00-1.113-3.124 4.209 4.209 0 00-1.4-.979 4.254 4.254 0 00-3.358 0c-.53.228-1.006.56-1.4.978a4.104 4.104 0 00-1.113 3.124c0 5.98 8.384 5.98 8.384 0zm15.154-2.559c8.383 0 8.383 11.095 0 11.118h-7.713v-17.11h12.594v3.913h-8.118v2.08h3.237zm-3.237 3.861v3.35h3.205a1.764 1.764 0 001.324-.43 1.69 1.69 0 00.416-.564 1.653 1.653 0 00-.416-1.926 1.744 1.744 0 00-1.324-.43h-3.205zm11.857-1.302c0-11.402 16.334-11.402 16.334 0 0 11.401-16.334 11.423-16.334 0zm12.167 0a4.281 4.281 0 00-.201-1.69 4.174 4.174 0 00-.841-1.464 4.004 4.004 0 00-1.338-.99 3.883 3.883 0 00-3.219 0c-.507.23-.963.567-1.338.99-.375.422-.661.92-.84 1.463a4.282 4.282 0 00-.202 1.69c0 5.98 7.979 5.98 7.979 0zm9.263 10.115h-3.541v-5.541h1.711l5.791-13.126h1.853l6.001 13.126h1.755v5.54h-3.608v-1.822h-9.977l.015 1.823zm2.506-5.593h4.771l-2.431-5.99-2.34 5.99zm14.186 4.037H203V16.798h4.485v8.325l8.688-8.4h1.605v17.08h-4.585v-8.325l-8.627 8.355zm31.9-17.111H238v17.111h-4.379v-7.595l-3.56 3.798h-.477l-3.538-3.798v7.595h-4.379v-17.11h1.579l6.554 7.412 6.666-7.413zM77.221 42.92h.694a3.33 3.33 0 011.179-1.637 2.79 2.79 0 011.505-.45 2.782 2.782 0 012.426 1.736 2.753 2.753 0 01-.56 2.921 2.573 2.573 0 01-1.9.788 2.782 2.782 0 01-1.797-.65 2.38 2.38 0 01-.895-1.748h-.694v2.266h-.957v-5.181h.985l.014 1.955zm5.064.642a1.792 1.792 0 00-.486-1.236 1.595 1.595 0 00-1.228-.525 1.686 1.686 0 00-1.206.483 1.74 1.74 0 00-.5 1.285 1.651 1.651 0 00.513 1.272 1.71 1.71 0 001.207.483 1.609 1.609 0 001.187-.511 1.734 1.734 0 00.513-1.25zm3.27-2.722h1.06a3.36 3.36 0 011.234.159c.25.107.46.295.6.536.15.266.225.57.216.878a1.49 1.49 0 01-.286.95 1.468 1.468 0 01-.774.53c-.347.065-.7.091-1.052.079v2.306h-.998v-5.439zm.977 2.095h.32c.174.008.348-.012.516-.058a.45.45 0 00.23-.181.56.56 0 00.084-.312.501.501 0 00-.055-.264.478.478 0 00-.182-.193c-.2-.09-.418-.128-.634-.109h-.28v1.117zm9.135-2.101v5.444H94.65v-3.412l-1.99 3.412h-.882v-5.444h1.045v3.55l2.019-3.522.825-.029zm5.012 0h.84l1.412 3.886h.513v1.558h-.81v-.713h-3.01v.713h-.846V44.72h.484l1.417-3.886zm.426 1.261l-.956 2.631h1.913l-.957-2.63zm8.562-1.261v5.444h-1.024v-3.412l-2.006 3.412h-.859v-5.444h1.024v3.55l2.034-3.522.831-.029zm5.131 3.056h-.356a5.48 5.48 0 01-1.135-.08 1.747 1.747 0 01-.697-.327 1.455 1.455 0 01-.475-.617 2.858 2.858 0 01-.134-.958v-1.075h1.076v1.06c-.028.274.043.55.201.777.253.179.565.256.875.218h.645v-2.054h1.091v5.444h-1.061l-.03-2.388zM119 40.834h3.111v1.006h-2.038v.984h2.038v.992h-2.038v1.448h2.038v1.014H119v-5.444zm10.111 1.031l-.638.688a2.002 2.002 0 00-.66-.54 1.859 1.859 0 00-.808-.203 1.444 1.444 0 00-.627.123 1.56 1.56 0 00-.528.386 1.695 1.695 0 00-.356.57 1.801 1.801 0 00-.116.676c-.006.32.067.635.21.915.136.266.34.486.587.633.261.153.553.23.849.227.248.002.494-.052.721-.159.272-.149.518-.347.728-.584l.638.688a3.432 3.432 0 01-1.002.777c-.342.15-.709.222-1.078.213a2.313 2.313 0 01-1.012-.179 2.463 2.463 0 01-.858-.605 2.646 2.646 0 01-.547-.897 2.809 2.809 0 01-.168-1.057 2.85 2.85 0 01.325-1.376c.222-.406.542-.739.926-.963a2.465 2.465 0 011.276-.364c.396 0 .788.092 1.148.27.36.178.68.438.939.761h.051zm3.111-1.031h1.04v1.872l1.425-1.873h1.218l-1.867 2.432 2.073 3.013H134.9l-1.638-2.417v2.417h-1.033l-.007-5.444zm7.628 0h1.092l2.169 5.444h-1.114l-.445-1.118h-2.304l-.452 1.118h-1.129l2.183-5.444zm.55 1.451l-.753 1.866h1.506l-.753-1.866zm8.933-1.451v5.444h-1.144V44.1h-.288l-1.208 2.178h-1.249l1.361-2.36a1.516 1.516 0 01-.897-.52 1.267 1.267 0 01-.288-.931 1.831 1.831 0 01.129-.726 1.33 1.33 0 01.36-.468c.156-.13.342-.228.544-.287.155-.054.316-.093.48-.116h1l1.2-.036zm-1.144 2.243v-1.234h-.312a2.866 2.866 0 00-.616.05.495.495 0 00-.304.196.602.602 0 00-.12.385c-.01.09.006.18.047.26a.52.52 0 00.185.205c.235.108.497.155.76.138h.36zm7.401-2.243h1.233v1.872l1.712-1.873H160l-2.244 2.432 2.466 3.013h-1.455l-1.978-2.417v2.417h-1.233l.034-5.444zm9.717 0a2.607 2.607 0 011.893.792 2.662 2.662 0 01.8 1.937 2.609 2.609 0 01-.8 1.917 2.736 2.736 0 01-1.935.798 2.75 2.75 0 01-1.934-.797 2.746 2.746 0 01-.411-3.275c.234-.414.578-.755.995-.986.419-.256.901-.39 1.392-.386zm0 .965a1.67 1.67 0 00-1.602 1.08 1.766 1.766 0 00-.117.685 1.638 1.638 0 00.627 1.379c.309.258.701.398 1.106.393a1.626 1.626 0 001.204-.51 1.81 1.81 0 000-2.496 1.634 1.634 0 00-1.225-.531h.007zm5.959-.965h.982l1.221 3.796 1.228-3.797h.975l.884 5.445h-.969l-.561-3.44-1.122 3.44h-.884l-1.108-3.44-.576 3.44h-1.003l.933-5.444zm7.623 0h4.667v5.444h-1.245v-4.479h-2.169v4.479h-1.253v-5.444zm8.895 0h.909l1.863 5.444h-.961l-.38-1.118h-1.972l-.394 1.118h-.96l1.895-5.444zm.47 1.451l-.644 1.866h1.289l-.645-1.866zm4.635-1.451h1.255v2.054h2.165v-2.054h1.247v5.444h-1.247V43.89h-2.165v2.388h-1.255v-5.444zm11.667 0v5.444h-1.01v-3.412l-1.991 3.412h-.888v-5.444h1.016v3.55l2.019-3.522.854-.029zm5.444.014v5.43h-.915v-2.172h-.231l-.966 2.172h-.999l1.088-2.353a1.185 1.185 0 01-.715-.52 1.478 1.478 0 01-.226-.928 2.235 2.235 0 01.096-.724 1.35 1.35 0 01.282-.5c.122-.134.268-.238.429-.304.126-.052.257-.091.39-.115h.794l.973.014zm-.915 2.237v-1.23h-.25a1.891 1.891 0 00-.493.05.413.413 0 00-.243.195.715.715 0 00-.096.384c-.009.09.005.18.038.262a.479.479 0 00.154.202c.185.108.394.156.602.137h.288z" fill="#307FE2"/></svg>