<svg width="201" height="55" fill="none" xmlns="http://www.w3.org/2000/svg"><path fill="#fff" d="M27.217 0l27.217 27.217-27.217 27.217L0 27.217z"/><path d="M44.475 25.668l-3.017 3.016.372.372a2.418 2.418 0 010 3.422l-.564.564a2.38 2.38 0 01-1.692.705h-.163a2.419 2.419 0 01-.694 1.826l-.564.564a2.398 2.398 0 01-1.692.71 1.477 1.477 0 01-.163 0 2.388 2.388 0 01-.694 1.878l-.564.563a2.409 2.409 0 01-1.692.71 2.867 2.867 0 01-.377-.039 2.497 2.497 0 01-.722 1.691l-.564.564a2.482 2.482 0 01-1.692.722h-.05a2.308 2.308 0 01-1.642-.671l-.214-.214-1.252 1.246a2.764 2.764 0 01-3.902 0l-.226-.232a2.733 2.733 0 01-.778-2.255c-.105.006-.21.006-.316 0a2.725 2.725 0 01-1.951-.806l-.226-.23a2.723 2.723 0 01-.772-2.256c-.113 0-.215.034-.322.034a2.78 2.78 0 01-1.95-.806l-.226-.231a2.74 2.74 0 01-.779-2.255 2.972 2.972 0 01-.321 0 2.755 2.755 0 01-1.951-.806l-.22-.22a2.753 2.753 0 010-3.901l.248-.26-3.384-3.382L27.1 8.305l17.375 17.363zm-3.897 2.16l2.154-2.16-12.79-12.808-7.895 7.932a2.108 2.108 0 003.384 2.402l5.244-5.322 7.794 7.813 2.109 2.143zm.395 3.8a1.206 1.206 0 000-1.692l-3.779-3.788-6.53-6.551-4.41 4.46a3.316 3.316 0 01-5.639-2.385 3.381 3.381 0 01.36-1.511l.12-.153 7.985-8.01-1.98-1.98-15.66 15.65 2.549 2.577.333-.333a2.75 2.75 0 013.902 0l.231.226a2.744 2.744 0 01.778 2.254c.106-.02.214-.03.322-.033a2.752 2.752 0 011.951.806l.226.231a2.74 2.74 0 01.772 2.255 2.77 2.77 0 012.284.795l.226.231a2.718 2.718 0 01.778 2.255 2.731 2.731 0 012.255.783l.232.22a2.768 2.768 0 01.564 3.123l.338.339a1.07 1.07 0 00.806.315c.32-.008.624-.141.846-.372l.564-.563c.23-.225.363-.53.372-.852a1.094 1.094 0 00-.315-.806l-2.172-2.164-1.674-1.647.84-.862 2.03 2.03.034-.035 1.962 1.951a1.207 1.207 0 001.692 0l.564-.564a1.235 1.235 0 000-1.72l-3.231-3.224-.564-.563.863-.857 3.772 3.777a1.235 1.235 0 001.692 0l.564-.564a1.206 1.206 0 000-1.691l-3.812-3.811-.13-.13.88-.8 3.947 3.946a1.213 1.213 0 001.692 0l.57-.564zm-13.534 9.357a1.556 1.556 0 000-2.193l-.226-.225a1.55 1.55 0 00-2.188 0l-1.444 1.449a1.556 1.556 0 000 2.187l.226.231a1.568 1.568 0 002.194 0l1.438-1.449zm-3.277-3.275a1.542 1.542 0 000-2.187l-.22-.226a1.545 1.545 0 00-2.188 0l-1.477 1.443a1.55 1.55 0 000 2.216l.23.22a1.55 1.55 0 002.189 0l1.444-1.438.022-.028zm-3.288-3.264a1.556 1.556 0 000-2.188l-.23-.22a1.516 1.516 0 00-1.09-.456 1.539 1.539 0 00-1.099.451l-1.45 1.426a1.556 1.556 0 000 2.188l.232.225a1.54 1.54 0 002.188 0l1.45-1.426zm-3.27-3.27a1.556 1.556 0 000-2.187l-.232-.231a1.556 1.556 0 00-1.128-.446 1.54 1.54 0 00-1.088.446l-1.42 1.432a1.55 1.55 0 000 2.187l.225.231a1.557 1.557 0 002.188 0l1.443-1.449.012.017z" fill="#307FE2"/><path d="M63.616 21.064c0-9.55 14.429-9.55 14.429 0 0 9.551-14.429 9.57-14.429 0zm10.75 0a3.416 3.416 0 00-.19-1.404 3.462 3.462 0 00-.747-1.213 3.536 3.536 0 00-1.177-.819 3.59 3.59 0 00-2.824 0c-.446.19-.846.47-1.177.82a3.46 3.46 0 00-.746 1.212c-.161.45-.226.928-.19 1.404 0 5.01 7.05 5.01 7.05 0zm12.809-7.163c2.886 0 6.014 1.586 6.554 5.332h-3.507a2.933 2.933 0 00-1.16-1.573 2.904 2.904 0 00-1.887-.488c-2.092 0-3.47 1.58-3.47 3.908 0 2.06 1.36 3.865 3.47 3.89.7.052 1.396-.147 1.965-.561a2.985 2.985 0 001.138-1.706h3.507c-.521 3.97-3.65 5.531-6.616 5.531-3.55 0-7.138-2.384-7.157-7.154-.018-4.769 3.613-7.179 7.163-7.179zm18.662 6.883a3.1 3.1 0 011.717 2.928c0 2.5-1.532 4.522-4.451 4.522h-6.695V13.902h6.104a4.37 4.37 0 013.145 1.264 4.385 4.385 0 011.306 3.137 3.44 3.44 0 01-1.126 2.481zm-5.9-3.604v2.316h2.308c1.45 0 1.45-2.316 0-2.316h-2.308zm0 5.365v2.436h2.918c1.469 0 1.45-2.436 0-2.436h-2.918zm9.588-1.481c0-9.55 14.429-9.55 14.429 0 0 9.551-14.429 9.57-14.429 0zm10.778 0a3.409 3.409 0 00-.192-1.404 3.46 3.46 0 00-.747-1.213 3.548 3.548 0 00-1.181-.819 3.601 3.601 0 00-4.011.82 3.442 3.442 0 00-.748 1.212c-.162.45-.227.928-.191 1.404 0 5.01 7.07 5.01 7.07 0zm12.777-2.143c7.069 0 7.069 9.294 0 9.313h-6.503V13.901h10.62v3.279h-6.845v1.741h2.728zm-2.728 3.234v2.807h2.702a1.492 1.492 0 001.116-.36 1.41 1.41 0 00.351-.473 1.372 1.372 0 000-1.14 1.41 1.41 0 00-.351-.473 1.492 1.492 0 00-1.116-.36h-2.702zm9.998-1.091c0-9.55 13.772-9.55 13.772 0 0 9.551-13.772 9.57-13.772 0zm10.259 0a3.575 3.575 0 00-.17-1.415 3.479 3.479 0 00-.709-1.226 3.376 3.376 0 00-1.128-.83 3.297 3.297 0 00-2.714 0 3.39 3.39 0 00-1.129.83 3.492 3.492 0 00-.708 1.226 3.557 3.557 0 00-.17 1.415c0 5.01 6.728 5.01 6.728 0zm7.81 8.473h-2.985v-4.641h1.442l4.883-10.995h1.563l5.06 10.995h1.48v4.641h-3.042v-1.526h-8.413l.012 1.526zm2.113-4.684h4.023l-2.049-5.019-1.974 5.019zm11.963 3.381h-1.321v-14.27h3.782v6.974l7.326-7.037h1.353V28.21h-3.866v-6.973l-7.274 6.998zm26.898-14.333h1.294v14.333h-3.693v-6.361l-3.002 3.18h-.402l-2.983-3.18v6.361h-3.693V13.901h1.331l5.527 6.21 5.621-6.21zM65.115 35.845h.584a2.79 2.79 0 01.995-1.371 2.357 2.357 0 011.269-.376c.446.024.875.173 1.237.43.362.258.643.613.808 1.023a2.292 2.292 0 01-.472 2.447 2.17 2.17 0 01-1.602.66 2.355 2.355 0 01-1.515-.544 1.994 1.994 0 01-.755-1.464h-.585v1.898h-.807v-4.34h.83l.013 1.637zm4.27.538a1.496 1.496 0 00-.879-1.368 1.359 1.359 0 00-.566-.107 1.43 1.43 0 00-1.018.405 1.458 1.458 0 00-.421 1.076 1.376 1.376 0 00.433 1.065c.272.263.637.408 1.017.405a1.363 1.363 0 001-.428 1.453 1.453 0 00.433-1.047zm2.757-2.281h.894a2.85 2.85 0 011.04.134c.211.09.388.248.506.45.127.222.19.477.182.734.013.287-.072.569-.24.796a1.239 1.239 0 01-.653.444c-.293.055-.59.077-.888.067v1.931h-.84v-4.556zm.823 1.756h.27c.147.007.294-.01.436-.049a.378.378 0 00.194-.152.468.468 0 00.07-.26.418.418 0 00-.046-.222.4.4 0 00-.153-.161 1.074 1.074 0 00-.535-.092h-.236v.936zm7.703-1.76v4.56h-.857V35.8l-1.679 2.858h-.743v-4.56h.881v2.973l1.703-2.949.695-.024zm4.227 0h.709l1.19 3.255h.433v1.305h-.684v-.597h-2.538v.597h-.713v-1.305h.408l1.195-3.255zm.36 1.056l-.807 2.204h1.613l-.807-2.203zm7.218-1.056v4.56h-.863V35.8l-1.691 2.858h-.725v-4.56h.864v2.973l1.715-2.949.7-.024zm4.327 2.56h-.3c-.32.01-.641-.012-.957-.067a1.476 1.476 0 01-.588-.274 1.22 1.22 0 01-.4-.517 2.369 2.369 0 01-.113-.802v-.9h.907v.887c-.024.23.036.46.17.651.212.15.476.215.737.182h.544v-1.72h.92v4.56h-.894l-.025-2zm3.543-2.56h2.624v.843h-1.719v.824h1.719v.831h-1.719v1.213h1.719v.85h-2.624v-4.561zm8.526.864l-.538.576a1.68 1.68 0 00-.556-.453 1.581 1.581 0 00-.681-.17 1.222 1.222 0 00-.529.104c-.168.074-.32.184-.445.323a1.43 1.43 0 00-.301.478 1.53 1.53 0 00-.098.565 1.62 1.62 0 00.178.767c.115.223.286.407.495.53.219.128.466.194.716.19.209.002.416-.043.608-.133.229-.124.436-.29.613-.49l.538.577c-.242.27-.528.49-.845.651a2.153 2.153 0 01-.909.179 1.963 1.963 0 01-.853-.15 2.084 2.084 0 01-.724-.507 2.21 2.21 0 01-.46-.751 2.335 2.335 0 01-.142-.886 2.365 2.365 0 01.274-1.152 2.1 2.1 0 01.78-.807 2.091 2.091 0 011.077-.305c.334 0 .664.077.967.226.304.15.574.367.792.638h.043zm2.624-.864h.876v1.569l1.202-1.57h1.027l-1.574 2.038 1.748 2.523h-1.021l-1.382-2.025v2.025h-.87l-.006-4.56zm6.432 0h.921l1.828 4.56h-.94l-.374-.936h-1.943l-.381.936h-.953l1.842-4.56zm.463 1.216l-.635 1.563h1.27l-.635-1.563zm7.533-1.216v4.56h-.965v-1.824h-.243l-1.018 1.824h-1.053l1.147-1.976a1.281 1.281 0 01-.756-.437 1.058 1.058 0 01-.243-.78 1.533 1.533 0 01.108-.607 1.12 1.12 0 01.304-.392c.132-.11.288-.191.459-.24.131-.046.266-.078.405-.098h.843l1.012-.03zm-.965 1.879v-1.034h-.263a2.424 2.424 0 00-.519.042.422.422 0 00-.257.165.513.513 0 00-.101.322.386.386 0 00.04.218.434.434 0 00.156.171c.198.09.419.13.641.116h.303zm6.241-1.879h1.039v1.569l1.444-1.57h1.235l-1.892 2.038 2.08 2.523h-1.228l-1.667-2.025v2.025h-1.04l.029-4.56zm8.193 0a2.21 2.21 0 011.596.664 2.229 2.229 0 01.675 1.623 2.173 2.173 0 01-.675 1.605 2.304 2.304 0 01-1.631.668 2.331 2.331 0 01-1.631-.668 2.28 2.28 0 01-.346-2.743 2.17 2.17 0 01.839-.826 2.239 2.239 0 011.173-.323zm0 .808a1.414 1.414 0 00-1.35.906 1.44 1.44 0 00-.099.573 1.386 1.386 0 00.528 1.155c.261.216.592.333.933.329a1.376 1.376 0 001.015-.427 1.51 1.51 0 00-.468-2.422 1.39 1.39 0 00-.564-.114h.005zm5.026-.808h.828l1.029 3.18 1.035-3.18h.822l.746 4.56h-.817l-.473-2.882-.946 2.882h-.746l-.934-2.882-.485 2.882h-.846l.787-4.56zm6.427 0h3.935v4.56h-1.049v-3.752H151.9v3.752h-1.057v-4.56zm7.5 0h.767l1.571 4.56h-.81l-.321-.936h-1.663l-.332.936h-.81l1.598-4.56zm.397 1.216l-.543 1.563h1.087l-.544-1.563zm3.908-1.216h1.059v1.72h1.825v-1.72h1.051v4.56h-1.051v-2h-1.825v2h-1.059v-4.56zm9.838 0v4.56h-.852V35.8l-1.678 2.858h-.749v-4.56h.857v2.973l1.702-2.949.72-.024zm4.59.012v4.548h-.771v-1.82h-.195l-.815 1.82h-.842l.918-1.97a1 1 0 01-.603-.437 1.228 1.228 0 01-.191-.777 1.878 1.878 0 01.081-.606 1.13 1.13 0 01.238-.419 1.01 1.01 0 01.361-.254 1.6 1.6 0 01.33-.097h.669l.82.012zm-.771 1.874v-1.031h-.211a1.616 1.616 0 00-.416.042.351.351 0 00-.205.164.604.604 0 00-.081.321.456.456 0 00.033.22.398.398 0 00.129.168.853.853 0 00.508.116h.243z" fill="#fff"/></svg>