<svg width="64" height="48" fill="none" xmlns="http://www.w3.org/2000/svg"><path fill="#EAF7DE" d="M0 26L22 4l22 22-22 22z"/><path d="M29.865 35.42c-2.03 0-3.838-.502-5.425-1.505-1.587-1.003-2.835-2.45-3.745-4.34-.887-1.913-1.33-4.188-1.33-6.825 0-2.637.443-4.9 1.33-6.79.91-1.913 2.158-3.372 3.745-4.375 1.587-1.003 3.395-1.505 5.425-1.505s3.838.502 5.425 1.505c1.587 1.003 2.823 2.462 3.71 4.375.91 1.89 1.365 4.153 1.365 6.79 0 2.637-.455 4.912-1.365 6.825-.887 1.89-2.123 3.337-3.71 4.34-1.587 1.003-3.395 1.505-5.425 1.505zm0-4.795c1.493 0 2.66-.642 3.5-1.925.863-1.283 1.295-3.267 1.295-5.95 0-2.683-.432-4.667-1.295-5.95-.84-1.283-2.007-1.925-3.5-1.925-1.47 0-2.637.642-3.5 1.925-.84 1.283-1.26 3.267-1.26 5.95 0 2.683.42 4.667 1.26 5.95.863 1.283 2.03 1.925 3.5 1.925zm17.213-3.008c-1.211 0-2.2-.399-2.967-1.196-.767-.797-1.15-1.886-1.15-3.266 0-.905.176-1.694.529-2.369.353-.675.836-1.188 1.449-1.541.629-.368 1.342-.552 2.139-.552 1.227 0 2.223.406 2.99 1.219.767.797 1.15 1.878 1.15 3.243 0 1.38-.383 2.469-1.15 3.266-.767.797-1.763 1.196-2.99 1.196zM56.6 18.9h3.312L48.918 35h-3.312L56.6 18.9zm-9.522 6.532c.414 0 .744-.184.989-.552.245-.368.368-.943.368-1.725 0-.782-.123-1.357-.368-1.725-.245-.368-.575-.552-.99-.552-.398 0-.727.192-.988.575-.245.368-.368.935-.368 1.702 0 .767.123 1.342.368 1.725.26.368.59.552.989.552zm11.362 9.775c-1.227 0-2.223-.399-2.99-1.196-.751-.797-1.127-1.886-1.127-3.266 0-1.365.383-2.446 1.15-3.243.767-.813 1.756-1.219 2.967-1.219 1.227 0 2.223.406 2.99 1.219.767.797 1.15 1.878 1.15 3.243 0 1.38-.383 2.469-1.15 3.266-.767.797-1.763 1.196-2.99 1.196zm0-2.185c.414 0 .744-.184.989-.552.245-.368.368-.943.368-1.725 0-.782-.123-1.357-.368-1.725-.245-.368-.575-.552-.99-.552-.413 0-.743.184-.988.552-.245.368-.368.943-.368 1.725 0 .782.123 1.357.368 1.725.245.368.575.552.989.552z" fill="#307FE2"/><circle cx="28" cy="38" r="10" fill="#93DA49"/><path d="M32.186 33.714l-5 5.32-1.944-2.068-1.528 1.626 3.472 3.694 6.528-6.946-1.528-1.626z" fill="#fff"/></svg>